<?xml version="1.0" standalone="no"?> <!DOCTYPE svg PUBLIC "-//W3C//DTD SVG 1.0//EN" "http://www.w3.org/TR/2001/REC-SVG-20010904/DTD/svg10.dtd" > <svg xmlns="http://www.w3.org/2000/svg" width="100%" height="100%">
<defs >
<font id="bod_i" horiz-adv-x="798" ><font-face
    font-family="Bodoni MT"
    units-per-em="2048"
    panose-1="2 7 6 3 8 6 6 9 2 3"
    ascent="1878"
    descent="-578"
    alphabetic="0" />
<missing-glyph horiz-adv-x="2048" d="M256 0V1536H1792V0H256ZM384 128H1664V1408H384V128Z" />
<glyph unicode=" " glyph-name="space" horiz-adv-x="502" />
<glyph unicode="!" glyph-name="exclam" horiz-adv-x="662" d="M330 377H281Q345 645 350 999Q353 1221 391 1293T500 1366Q546 1366 576 1331T606 1253Q606 1160 527 980T417 710T344 438L330 377ZM131 94Q131 143 166 178T250 213Q299 213 334 178T369 94Q369
45 334 10T250 -25Q202 -25 167 10T131 94Z" />
<glyph unicode="&quot;" glyph-name="quotedbl" horiz-adv-x="860" d="M295 788L326 1085Q344 1273 383 1322T483 1372Q520 1372 540 1351T561 1303Q561 1261 477 1083L338 788H295ZM662 788L690 1081Q710 1277 750 1324T854 1372Q928 1372 928 1305Q928 1243
850 1081L709 788H662Z" />
<glyph unicode="#" glyph-name="numbersign" horiz-adv-x="1368" d="M92 961H422L510 1370H612L526 961H965L1051 1370H1155L1069 961H1274V856H1049L967 467H1274V362H946L860 -47H756L842 362H401L317 -47H211L297 362H92V467H319L401 856H92V961ZM944 856H504L422
469H864L944 856Z" />
<glyph unicode="$" glyph-name="dollar" horiz-adv-x="1004" d="M766 1227L651 698Q765 598 804 524T844 365Q844 222 748 110T496 -18L459 -193H420L457 -20Q430 -27 402 -27Q371 -27 342 -18L303 -193H264L303 -10Q197 22 141 85T84 217Q84 267 112 301T180
336Q218 336 245 309T272 244Q272 189 233 164T193 123Q193 72 313 33L442 627Q432 641 371 702T281 830T252 963Q252 1073 336 1164T584 1278L598 1339H633L623 1280Q648 1283 664 1283Q689 1283 739 1276L754 1339H788L774 1270Q893 1242 946 1178T999 1055Q999
1014 971 981T899 948Q865 948 838 971T811 1030Q811 1074 852 1100T893 1139Q893 1193 766 1227ZM612 1237L520 819Q565 773 618 729L729 1233Q693 1240 612 1237ZM492 850L575 1233Q383 1198 383 1049Q383 954 492 850ZM467 29L571 508L473 598L350 27Q373 19
405 19Q441 19 467 29ZM604 473L506 29Q621 55 673 118T725 254Q725 363 604 473Z" />
<glyph unicode="%" glyph-name="percent" horiz-adv-x="1898" d="M639 1376Q723 1376 779 1303T836 1098Q836 925 726 801T498 676Q414 676 359 754T303 950Q303 1113 407 1244T639 1376ZM506 717Q554 717 584 769T659 991T705 1249Q705 1290 684 1312T637 1335Q597
1335 564 1298T483 1062T434 795Q434 717 506 717ZM1518 1374H1608L354 -68H266L1518 1374ZM1370 633Q1455 633 1511 560T1567 354Q1567 181 1457 57T1229 -68Q1145 -68 1090 10T1034 207Q1034 369 1138 501T1370 633ZM1237 -27Q1285 -27 1315 26T1390 248T1436
506Q1436 547 1415 569T1368 592Q1329 592 1296 555T1214 318T1165 51Q1165 -27 1237 -27Z" />
<glyph unicode="&amp;" glyph-name="ampersand" horiz-adv-x="1665" d="M1550 236L1587 209Q1426 -27 1204 -27Q1026 -27 895 129Q716 -27 506 -27Q338 -27 226 69T113 315Q113 626 588 786Q541 928 541 1016Q541 1162 638 1264T922 1366Q1056 1366 1140 1305T1225
1147Q1225 1026 1099 950T819 823Q909 559 1022 356Q1077 429 1163 573T1304 778T1446 838Q1511 838 1553 797T1595 702Q1595 659 1566 628T1495 596Q1455 596 1427 625T1399 694Q1399 713 1407 733T1415 756Q1415 770 1393 770Q1337 770 1266 650T1178 504L1077
346Q1067 332 1049 301Q1164 72 1313 72Q1440 72 1550 236ZM805 866Q1063 985 1063 1190Q1063 1319 920 1319Q828 1319 781 1271T733 1143Q733 1058 805 866ZM600 743Q352 643 352 430Q352 289 422 171T625 53Q735 53 866 168Q720 371 600 743Z" />
<glyph unicode="&apos;" glyph-name="quotesingle" horiz-adv-x="438" d="M270 788L301 1085Q320 1273 358 1322T457 1372Q535 1372 535 1303Q535 1257 453 1083L313 788H270Z" />
<glyph unicode="(" glyph-name="parenleft" horiz-adv-x="1004" d="M430 -475H389Q233 -173 233 141Q233 485 410 816T918 1331L956 1305Q672 1145 513 654T354 -90Q354 -296 430 -475Z" />
<glyph unicode=")" glyph-name="parenright" horiz-adv-x="1004" d="M545 1331H586Q741 1029 741 715Q741 369 564 38T57 -475L18 -449Q303 -289 462 202T621 946Q621 1162 545 1331Z" />
<glyph unicode="*" glyph-name="asterisk" horiz-adv-x="1004" d="M512 1278Q512 1317 535 1344T594 1372Q631 1372 652 1345T674 1284Q674 1244 640 1172T606 1077Q606 1055 623 1055Q650 1055 709 1143T838 1231Q875 1231 896 1207T918 1155Q918 1119 883 1091T813
1061Q641 1053 641 1018Q641 993 736 984Q842 974 877 946T913 877Q913 847 892 825T842 803Q796 803 770 827T698 915T625 979Q608 979 608 958Q608 930 640 862T672 752Q672 719 650 691T592 662Q556 662 535 689T514 748Q514 782 546 859T578 956Q578 975 563
975Q534 975 475 889T350 803Q314 803 293 826T272 877Q272 970 430 981Q545 988 545 1018Q545 1049 430 1057Q268 1065 268 1163Q268 1191 290 1215T348 1239Q416 1239 475 1149T563 1059Q575 1059 575 1073Q575 1102 544 1173T512 1278Z" />
<glyph unicode="+" glyph-name="plus" horiz-adv-x="1366" d="M141 713H629V1198H735V713H1223V606H735V121H629V606H141V713Z" />
<glyph unicode="," glyph-name="comma" horiz-adv-x="555" d="M82 -297L72 -248Q208 -203 276 -119T344 45Q344 80 326 80Q311 80 291 49Q258 0 201 0Q159 0 130 29T100 102Q100 153 143 191T244 229Q315 229 357 175T399 53Q399 -49 323 -144T82 -297Z" />
<glyph unicode="-" glyph-name="hyphen" horiz-adv-x="662" d="M90 516H518V334H90V516Z" />
<glyph unicode="." glyph-name="period" horiz-adv-x="662" d="M170 94Q170 143 205 177T289 211Q337 211 371 177T406 94Q406 45 372 10T289 -25Q240 -25 205 10T170 94Z" />
<glyph unicode="/" glyph-name="slash" horiz-adv-x="575" d="M575 1372L109 -31H0L467 1372H575Z" />
<glyph unicode="0" glyph-name="zero" horiz-adv-x="1004" d="M379 -31Q253 -31 164 91T74 444Q74 773 258 1042T629 1311Q771 1311 852 1175T934 846Q934 506 751 238T379 -31ZM627 1266Q537 1266 471 1169T317 711T229 209Q229 116 268 65T375 14Q483 14 553
125T701 607T778 1090Q778 1165 739 1215T627 1266Z" />
<glyph unicode="1" glyph-name="one" horiz-adv-x="1004" d="M764 1311L498 51H721L711 0H86L96 51H305L563 1231H328L338 1282H471Q682 1282 764 1311Z" />
<glyph unicode="2" glyph-name="two" horiz-adv-x="1004" d="M827 338L748 0H31V61Q164 234 446 473Q750 729 750 1065Q750 1152 705 1206T580 1260Q465 1260 384 1189T303 1055Q303 1046 311 1034T332 1022L377 1026Q465 1026 465 944Q465 902 435 874T365 846Q309
846 274 891T238 995Q238 1111 340 1211T614 1311Q770 1311 860 1228T950 1030Q950 906 864 802T511 466T180 162H606Q690 162 714 180T757 266T778 338H827Z" />
<glyph unicode="3" glyph-name="three" horiz-adv-x="1004" d="M567 702V698Q864 651 864 401Q864 227 718 99T385 -29Q248 -29 158 43T68 211Q68 266 101 302T184 338Q224 338 251 312T279 246Q279 179 219 154Q178 135 178 115Q178 87 237 57T356 27Q496 27
577 156T659 459Q659 672 477 672Q448 672 399 665T346 657Q309 657 309 690Q309 729 360 729L458 722Q592 722 659 846T727 1096Q727 1266 580 1266Q514 1266 462 1238T410 1188Q410 1175 418 1169Q473 1133 473 1083Q473 1045 448 1017T377 989Q334 989 309 1017T283
1083Q283 1171 377 1241T610 1311Q748 1311 835 1235T922 1047Q922 788 567 702Z" />
<glyph unicode="4" glyph-name="four" horiz-adv-x="1004" d="M889 1315L690 391H866L893 510H944L872 190H823L856 340H678L614 51H760L750 0H270L279 51H428L492 340H27V381Q344 835 795 1315H889ZM502 391L651 1077L647 1081Q379 783 131 444L92 391H502Z" />
<glyph unicode="5" glyph-name="five" horiz-adv-x="1004" d="M375 1114L274 723Q377 768 496 768Q651 768 755 680T860 434Q860 251 722 110T371 -31Q241 -31 157 37T72 203Q72 319 180 319Q227 319 250 292T274 227Q274 189 256 171T206 139T174 106Q174 72
234 45T354 18Q514 18 588 164T662 477Q662 622 590 667T449 713Q360 713 258 655L209 662L342 1192Q358 1254 384 1267T494 1280H729Q828 1280 854 1290T903 1346H950Q922 1242 883 1191T801 1127T690 1114H375Z" />
<glyph unicode="6" glyph-name="six" horiz-adv-x="1004" d="M956 1341V1294Q560 1280 373 758L377 754Q483 854 621 854Q744 854 829 755T915 522Q915 318 771 144T426 -31Q267 -31 177 83T86 371Q86 592 208 825T532 1199T956 1341ZM596 803Q517 803 438 747T345
659T290 450T250 178Q250 98 302 56T422 14Q490 14 545 60T663 279T727 629Q727 703 693 753T596 803Z" />
<glyph unicode="7" glyph-name="seven" horiz-adv-x="1004" d="M344 1280H1026V1255L809 915Q788 895 706 752T568 483T512 280L516 121Q516 58 483 9T395 -41Q356 -41 325 -9T293 72Q293 168 393 342T598 678L872 1104H449Q352 1104 315 1077T223 915H170L344 1280Z" />
<glyph unicode="8" glyph-name="eight" horiz-adv-x="1004" d="M633 659V655Q870 563 870 371Q870 203 732 86T403 -31Q237 -31 137 64T37 291Q37 407 131 513T416 666V670Q213 761 213 946Q213 1102 341 1206T637 1311Q787 1311 878 1224T969 1012Q969 757 633
659ZM635 1266Q520 1266 461 1131T401 823Q401 761 436 722T539 682Q650 682 715 818T780 1092Q780 1168 744 1217T635 1266ZM512 637Q376 637 305 505T233 180Q233 98 281 56T406 14Q549 14 613 162T678 461Q678 637 512 637Z" />
<glyph unicode="9" glyph-name="nine" horiz-adv-x="1004" d="M41 -31L53 18Q467 49 631 524L627 528Q518 422 389 422Q267 422 179 516T90 760Q90 973 247 1142T582 1311Q730 1311 824 1195T918 899Q918 557 674 263T41 -31ZM410 475Q454 475 497 492T589 546T656
616T715 814T754 1081Q754 1163 711 1211T584 1260Q500 1260 446 1203T335 985T279 653Q279 563 319 519T410 475Z" />
<glyph unicode=":" glyph-name="colon" horiz-adv-x="662" d="M266 694Q266 743 300 777T383 811Q432 811 467 777T502 694Q502 645 467 610T383 575Q334 575 300 610T266 694ZM150 94Q150 143 184 177T268 211Q316 211 350 177T385 94Q385 45 351 10T268 -25Q219
-25 185 10T150 94Z" />
<glyph unicode=";" glyph-name="semicolon" horiz-adv-x="662" d="M274 694Q274 743 308 777T391 811Q440 811 475 777T510 694Q510 645 475 610T391 575Q343 575 309 610T274 694ZM102 -297L92 -248Q228 -203 296 -119T365 45Q365 80 346 80Q332 80 311 49Q279
0 221 0Q179 0 150 29T121 102Q121 153 164 191T264 229Q335 229 377 175T420 53Q420 -49 344 -144T102 -297Z" />
<glyph unicode="&lt;" glyph-name="less" horiz-adv-x="1366" d="M1223 156L143 612V709L1223 1163V1047L289 659L1223 272V156Z" />
<glyph unicode="=" glyph-name="equal" horiz-adv-x="1366" d="M143 950H1223V842H143V950ZM143 483H1223V375H143V483Z" />
<glyph unicode="&gt;" glyph-name="greater" horiz-adv-x="1366" d="M143 1163L1223 707V610L143 156V272L1079 657L143 1044V1163Z" />
<glyph unicode="?" glyph-name="question" horiz-adv-x="768" d="M305 375H258Q251 607 319 704T616 915Q760 987 760 1126Q760 1212 697 1267T532 1323Q442 1323 377 1283T311 1212Q311 1202 333 1193L373 1179Q395 1171 411 1152T428 1100Q428 1059 399 1033T332
1006Q287 1006 254 1040T221 1122Q221 1222 312 1297T541 1372Q678 1372 763 1287T848 1071Q848 773 492 625Q376 576 341 533T305 375ZM166 94Q166 143 201 178T285 213Q333 213 368 178T403 94Q403 46 368 11T285 -25Q236 -25 201 10T166 94Z" />
<glyph unicode="@" glyph-name="at" horiz-adv-x="1884" d="M1409 958L1227 330Q1198 230 1198 178Q1198 152 1217 127T1272 102Q1422 102 1560 298T1698 756Q1698 1021 1517 1195T1051 1370Q679 1370 436 1085T193 418Q193 64 413 -158T975 -381Q1236 -381 1447
-242T1778 172H1835Q1738 -120 1497 -281T969 -442Q596 -442 346 -191T96 444Q96 858 374 1140T1042 1423Q1372 1423 1564 1227T1757 737Q1757 467 1602 249T1204 31Q1053 31 1053 168Q1053 235 1071 311L1067 315Q846 31 676 31Q595 31 546 102T496 262Q496 494
686 729T1047 965Q1187 965 1217 825H1221L1251 936L1409 958ZM1182 774Q1182 834 1148 876T1059 918Q927 918 790 682T653 293Q653 238 686 195T768 152Q865 152 978 275T1137 543T1182 774Z" />
<glyph unicode="A" glyph-name="A" horiz-adv-x="1556" d="M993 444H567L248 51H463L453 0H6L16 51H180L1253 1372H1303L1180 51H1374L1364 0H741L750 51H950L993 444ZM608 496H993L1040 1026L1036 1030L608 496Z" />
<glyph unicode="B" glyph-name="B" horiz-adv-x="1430" d="M252 51L512 1290H305L315 1341H883Q1052 1341 1147 1316T1308 1212T1374 1040Q1374 922 1275 830T961 707V702Q1129 664 1210 571T1292 360Q1292 250 1216 157T1016 32T688 0H55L68 51H252ZM745 1290L627
733H809Q938 733 1005 769T1105 917T1139 1135Q1139 1240 1078 1265T872 1290H745ZM616 682L483 51H711Q860 51 919 88T1015 253T1051 506Q1051 588 998 635T788 682H616Z" />
<glyph unicode="C" glyph-name="C" horiz-adv-x="1323" d="M1348 1323L1272 948H1219Q1207 1321 952 1321Q794 1321 677 1168T497 759T434 326Q434 185 516 103T727 20Q1011 20 1202 387H1249L1153 0H1108Q1088 32 1051 80Q876 -31 709 -31Q492 -31 336 117T180
487Q180 715 297 919T601 1248T956 1372Q1127 1372 1219 1241Q1262 1275 1307 1323H1348Z" />
<glyph unicode="D" glyph-name="D" horiz-adv-x="1556" d="M250 51L510 1290H303L315 1341H858Q994 1341 1091 1322T1283 1225T1427 1033T1477 793Q1477 497 1264 249T680 0H55L66 51H250ZM743 1290L483 51H653Q771 51 849 66T992 137T1119 355T1210 687T1239
989Q1239 1113 1186 1184T1069 1273T872 1290H743Z" />
<glyph unicode="E" glyph-name="E" horiz-adv-x="1430" d="M758 1290L637 727H741Q864 727 924 769T1032 963H1083L963 406H911Q922 461 922 516Q922 565 895 609T836 665T733 676H627L494 51H846Q970 51 1029 67T1163 177T1313 422H1364L1239 0H66L76 51H260L522
1290H315L326 1341H1456L1395 1001H1350Q1352 1141 1321 1202T1234 1276T1057 1290H758Z" />
<glyph unicode="F" glyph-name="F" horiz-adv-x="1430" d="M756 1290L631 723H764Q830 723 876 734T966 796T1036 954H1087L961 360H909Q930 438 930 494Q930 574 894 623T756 672H621L487 51H702L690 0H59L72 51H256L520 1290H336L348 1341H1464L1384 928H1337Q1343
1096 1312 1174T1227 1271T1077 1290H756Z" />
<glyph unicode="G" glyph-name="G" horiz-adv-x="1323" d="M1286 1354L1223 948H1176Q1160 1152 1083 1236T858 1321Q693 1321 601 1160T454 693T399 285Q399 164 462 92T641 20Q771 20 836 110T936 438H743L754 489H1343L1333 438H1204Q1126 152 980 61T676 -31Q422
-31 293 143T164 530Q164 860 385 1116T850 1372Q1051 1372 1161 1247Q1206 1289 1241 1354H1286Z" />
<glyph unicode="H" glyph-name="H" horiz-adv-x="1665" d="M1180 672H612L483 51H668L657 0H51L63 51H248L512 1290H328L340 1341H942L932 1290H745L625 723H1190L1313 1290H1128L1139 1341H1739L1729 1290H1542L1280 51H1464L1454 0H852L862 51H1047L1180 672Z" />
<glyph unicode="I" glyph-name="I" horiz-adv-x="1004" d="M831 1290L563 51H748L737 0H131L143 51H328L596 1290H412L424 1341H1028L1018 1290H831Z" />
<glyph unicode="J" glyph-name="J" horiz-adv-x="1217" d="M1087 1290L909 391Q845 63 689 -59T358 -182Q239 -182 147 -128T55 27Q55 87 89 121T170 156Q215 156 245 125T276 51Q276 -5 240 -29T203 -68Q203 -91 243 -109T344 -127Q452 -127 513 -74T601 60T655
272L856 1290H666L676 1341H1282L1272 1290H1087Z" />
<glyph unicode="K" glyph-name="K" horiz-adv-x="1665" d="M799 1290L532 51H717L707 0H104L115 51H299L567 1290H383L393 1341H995L985 1290H799ZM905 795L1411 51H1585L1575 0H975L985 51H1151L709 702L1438 1286V1290H1237L1247 1341H1710L1698 1290H1522L905 795Z" />
<glyph unicode="L" glyph-name="L" horiz-adv-x="1323" d="M745 1290L481 51H745Q872 51 943 74T1075 179T1208 436H1260L1141 0H55L66 51H252L512 1290H313L324 1341H954L942 1290H745Z" />
<glyph unicode="M" glyph-name="M" horiz-adv-x="1985" d="M860 1341L1008 338H1012L1591 1341H2066L2056 1290H1870L1604 51H1788L1778 0H1174L1184 51H1370L1634 1290H1616L879 0H831L641 1290H623L358 51H553L543 0H113L125 51H309L573 1290H389L399 1341H860Z" />
<glyph unicode="N" glyph-name="N" horiz-adv-x="1665" d="M848 1341L1294 354H1298L1497 1290H1313L1325 1341H1724L1714 1290H1548L1270 -16H1221L627 1290H610L346 51H557L547 0H82L94 51H293L557 1290H362L373 1341H848Z" />
<glyph unicode="O" glyph-name="O" horiz-adv-x="1323" d="M125 479Q125 687 233 897T509 1240T829 1372Q1036 1372 1162 1216T1288 831Q1288 501 1074 235T588 -31Q387 -31 256 127T125 479ZM1065 1083Q1065 1323 838 1323Q706 1323 616 1220T441 787T356 254Q356
18 586 18Q720 18 805 110T977 567T1065 1083Z" />
<glyph unicode="P" glyph-name="P" horiz-adv-x="1430" d="M543 1290H338L348 1341H936Q1147 1341 1234 1314T1382 1205T1444 1020Q1444 857 1294 738T840 618H639L524 51H731L721 0H80L90 51H293L543 1290ZM950 1290H776L649 670H836Q966 670 1038 704T1153 865T1196
1116Q1196 1195 1154 1242T950 1290Z" />
<glyph unicode="Q" glyph-name="Q" horiz-adv-x="1323" d="M1047 -365V-410Q931 -428 842 -428Q643 -428 535 -348T426 -113Q426 -84 442 -2Q290 63 208 197T125 489Q125 804 363 1088T844 1372Q1026 1372 1158 1220T1290 827Q1290 564 1137 317T715 -14Q684 -121
684 -180Q684 -375 907 -375Q964 -375 1047 -365ZM1065 1083Q1065 1323 838 1323Q706 1323 616 1220T441 787T356 254Q356 18 586 18Q720 18 805 110T977 567T1065 1083Z" />
<glyph unicode="R" glyph-name="R" horiz-adv-x="1430" d="M602 702L467 51H664L653 0H39L51 51H236L496 1290H289L299 1341H922Q1132 1341 1247 1254T1362 1044Q1362 913 1237 823T848 713V709Q1026 658 1108 572T1190 283Q1190 141 1208 93T1307 45Q1344 45
1413 68V14Q1310 -16 1245 -16Q1097 -16 1013 63T928 344Q928 553 878 627T653 702H602ZM907 1290H729L612 754H754Q922 754 984 791T1086 922T1126 1118Q1126 1194 1089 1242T907 1290Z" />
<glyph unicode="S" glyph-name="S" horiz-adv-x="1217" d="M1178 1341L1085 958H1036Q1035 1152 950 1239T735 1327Q607 1327 523 1251T438 1098Q438 1039 490 986T736 850T1012 669T1096 428Q1096 234 952 102T616 -31Q441 -31 279 100Q198 46 147 0H109L205
389H246Q267 207 369 114T616 20Q765 20 860 102T956 301Q956 391 889 460T631 614T385 776T330 963Q330 1147 449 1259T743 1372Q932 1372 1036 1239Q1100 1287 1130 1341H1178Z" />
<glyph unicode="T" glyph-name="T" horiz-adv-x="1430" d="M1024 1290L764 51H965L956 0H322L334 51H532L793 1290H721Q574 1290 471 1202T287 895H240L334 1341H1516L1419 895H1370Q1376 940 1376 973Q1376 1084 1352 1164T1276 1267T1110 1290H1024Z" />
<glyph unicode="U" glyph-name="U" horiz-adv-x="1665" d="M776 1290L606 494Q603 493 589 415T575 279Q575 25 874 25Q1047 25 1160 126T1327 508L1479 1290H1290L1300 1341H1718L1708 1290H1532L1370 463Q1320 201 1194 85T844 -31Q604 -31 477 72T350 313Q350
383 381 526L545 1290H352L362 1341H967L956 1290H776Z" />
<glyph unicode="V" glyph-name="V" horiz-adv-x="1556" d="M723 291L1524 1290H1323L1333 1341H1747L1737 1290H1589L524 -31H479L524 1290H328L340 1341H948L936 1290H752L719 295L723 291Z" />
<glyph unicode="W" glyph-name="W" horiz-adv-x="1985" d="M1200 295L1980 1290H1815L1825 1341H2191L2181 1290H2046L1008 -31H961L983 623L979 627L426 -31H379L438 1290H264L276 1341H1708L1698 1290H1548L1221 905L1196 299L1200 295ZM664 1290L616 279L621
274L987 713L1008 1290H664ZM1231 1290L1221 995L1225 991L1479 1290H1231Z" />
<glyph unicode="X" glyph-name="X" horiz-adv-x="1665" d="M973 823L1421 1290H1231L1241 1341H1675L1665 1290H1491L995 772L1323 51H1518L1507 0H879L891 51H1073L827 594L315 51H506L494 0H55L66 51H246L805 641L506 1290H307L315 1341H961L950 1290H758L973 823Z" />
<glyph unicode="Y" glyph-name="Y" horiz-adv-x="1665" d="M983 684L1499 1290H1303L1315 1341H1741L1729 1290H1567L1010 631L887 51H1079L1069 0H446L459 51H651L768 600L424 1290H254L264 1341H887L877 1290H678L983 684Z" />
<glyph unicode="Z" glyph-name="Z" horiz-adv-x="1323" d="M430 1341H1368V1309L367 51H662Q789 51 869 69T1027 168T1159 420H1208L1114 0H78V51L1069 1290H821Q708 1290 637 1272T504 1185T389 971H338L430 1341Z" />
<glyph unicode="[" glyph-name="bracketleft" horiz-adv-x="1004" d="M586 1300H963V1262H920Q816 1262 770 1244T702 1147L319 -270Q303 -330 303 -348Q303 -379 330 -395T453 -412H508L498 -451H113L586 1300Z" />
<glyph unicode="\" glyph-name="backslash" horiz-adv-x="575" d="M0 1372H109L575 -31H467L0 1372Z" />
<glyph unicode="]" glyph-name="bracketright" horiz-adv-x="1004" d="M358 -451H-18V-412H25Q128 -412 174 -394T242 -297L625 1120Q641 1180 641 1198Q641 1229 614 1245T492 1262H436L446 1300H831L358 -451Z" />
<glyph unicode="^" glyph-name="asciicircum" horiz-adv-x="864" d="M455 1372L877 655H756L434 1202L115 655H-10L414 1372H455Z" />
<glyph unicode="_" glyph-name="underscore" horiz-adv-x="1024" d="M1036 -256H-12V-154H1036V-256Z" />
<glyph unicode="`" glyph-name="grave" horiz-adv-x="682" d="M645 940L612 924L408 1124Q289 1243 289 1292Q289 1325 316 1349T371 1374Q431 1374 518 1198L645 940Z" />
<glyph unicode="a" glyph-name="a" horiz-adv-x="1004" d="M899 793L764 223Q745 146 745 102Q745 61 774 61Q798 61 842 118T932 289H973Q919 127 846 51T705 -25Q581 -25 571 160H567Q478 -25 319 -25Q221 -25 151 67T80 291Q80 497 224 654T512 811Q648 811
676 662H680L709 793H899ZM647 584Q647 662 614 714T520 766Q453 766 411 704T315 413T260 125Q260 27 336 27Q391 27 448 70T576 273T647 584Z" />
<glyph unicode="b" glyph-name="b" horiz-adv-x="874" d="M522 1356L369 698L373 694Q455 815 573 815Q675 815 748 732T821 510Q821 311 670 143T340 -25Q232 -25 157 38T82 207Q82 296 100 360Q103 366 111 397L322 1290H201L211 1341H328Q436 1341 522 1356ZM307
446L283 342Q254 215 254 145Q254 83 286 52T367 20Q434 20 481 77T584 376T641 674Q641 764 553 764Q488 764 420 698T307 446Z" />
<glyph unicode="c" glyph-name="c" horiz-adv-x="768" d="M653 244H698Q566 -25 367 -25Q236 -25 159 79T82 317Q82 497 222 654T565 811Q643 811 695 768T748 670Q748 621 719 592T651 563Q615 563 587 587T559 655Q559 695 590 729Q600 739 600 752Q600 766
539 766Q474 766 423 711T320 438T268 162Q268 100 301 60T383 20Q522 20 653 244Z" />
<glyph unicode="d" glyph-name="d" horiz-adv-x="1004" d="M1020 1356L754 225Q735 152 735 102Q735 72 766 72Q830 72 913 272H961Q850 -25 692 -25Q572 -25 561 154H557Q460 -25 317 -25Q219 -25 147 71T74 297Q74 491 213 655T506 819Q631 819 668 680H672L813
1290H625L637 1341H801Q916 1341 1020 1356ZM639 600Q639 670 606 722T510 774Q454 774 415 727T315 430T254 121Q254 83 276 55T332 27Q463 27 551 233T639 600Z" />
<glyph unicode="e" glyph-name="e" horiz-adv-x="768" d="M297 346Q256 162 256 127Q256 85 287 53T375 20Q558 20 684 264H727Q660 116 564 46T367 -25Q243 -25 162 77T80 315Q80 494 222 652T524 811Q627 811 683 748T739 608Q739 530 663 440T297 346ZM307
391Q447 394 493 429T569 544T598 672Q598 766 514 766Q435 766 393 694T307 391Z" />
<glyph unicode="f" glyph-name="f" horiz-adv-x="662" d="M195 84L236 397L287 684Q288 688 292 710T297 735H113L123 786H309Q369 1079 495 1222T760 1366Q840 1366 897 1321T954 1212Q954 1172 929 1143T866 1114Q830 1114 803 1140T776 1202Q776 1237 805 1266T834
1298Q834 1319 774 1319Q639 1319 582 1173T498 786H643L633 735H492L419 301Q383 89 346 -44T258 -279T154 -433T39 -511T-76 -537Q-149 -537 -200 -497T-252 -399Q-252 -361 -229 -333T-160 -305Q-76 -305 -76 -399Q-76 -423 -87 -441T-98 -471Q-98 -489 -70
-489Q10 -489 75 -410T195 84Z" />
<glyph unicode="g" glyph-name="g" horiz-adv-x="874" d="M182 -45Q45 16 45 129Q45 273 209 334Q137 411 137 508Q137 630 240 720T471 811Q625 811 698 676H702Q702 748 729 782T795 817Q822 817 843 798T864 745Q864 680 813 680Q792 680 780 699T766 721Q766
731 756 731Q733 731 733 668L737 580Q737 440 632 349T391 258Q309 258 233 305Q119 263 119 197Q119 160 155 141T311 121Q523 121 586 104T690 19T731 -141Q731 -309 610 -411T279 -514Q110 -514 18 -453T-74 -297Q-74 -136 182 -45ZM578 664Q578 706 555 736T485
766Q376 766 336 618T295 410Q295 303 391 303Q491 303 534 442T578 664ZM676 -199Q676 -154 647 -117T577 -70T420 -59Q165 -59 104 -135T43 -289Q43 -377 110 -423T293 -469Q477 -469 576 -382T676 -199Z" />
<glyph unicode="h" glyph-name="h" horiz-adv-x="1004" d="M553 1356L371 606L375 602Q527 811 705 811Q852 811 852 664Q852 629 831 547L752 225Q733 139 733 117Q733 63 766 63Q841 63 920 281H969Q880 -16 684 -16Q547 -16 547 123Q547 172 565 246L649 580Q666
645 666 674Q666 741 614 741Q573 741 495 677T381 543T317 358L231 0H45L348 1290H211L221 1341H350Q450 1341 553 1356Z" />
<glyph unicode="i" glyph-name="i" horiz-adv-x="662" d="M377 1223Q377 1268 410 1300T487 1333Q533 1333 565 1301T598 1223Q598 1177 565 1145T487 1112Q443 1112 410 1144T377 1223ZM496 805L346 188Q330 112 330 90Q330 53 367 53Q413 53 473 119T592 317H637Q506
-25 279 -25Q147 -25 147 113Q147 155 159 202T178 279L289 735H100L111 786H227Q370 786 496 805Z" />
<glyph unicode="j" glyph-name="j" horiz-adv-x="662" d="M412 1223Q412 1268 444 1300T522 1333Q568 1333 600 1301T633 1223Q633 1177 600 1145T522 1112Q477 1112 445 1144T412 1223ZM541 803L371 84Q227 -514 -59 -514Q-127 -514 -173 -484T-219 -408Q-219
-371 -192 -348T-125 -324Q-85 -324 -60 -350T-35 -410L-39 -449Q-39 -473 -12 -473Q24 -473 45 -431T106 -219L334 735H135L147 786H324Q393 786 449 793L541 803Z" />
<glyph unicode="k" glyph-name="k" horiz-adv-x="1004" d="M55 0L360 1290H209L219 1341H354Q431 1341 567 1356L354 471L358 467Q389 511 489 506Q539 540 614 680Q693 817 801 817Q860 817 902 779T944 686Q944 649 920 620T848 590Q805 590 784 617T762 674Q762
702 781 722T801 752Q801 766 776 766Q720 766 677 695T625 602Q592 547 543 496Q650 465 686 414T723 276L717 119Q714 61 748 61Q827 61 922 281H965Q910 128 826 56T653 -16Q516 -16 516 127Q516 156 529 206T550 294T561 338Q561 341 565 363T569 399Q569 452
508 467Q445 418 403 418Q362 418 356 453H352L244 0H55Z" />
<glyph unicode="l" glyph-name="l" horiz-adv-x="555" d="M555 1356L285 193Q270 130 270 102Q270 68 295 68Q381 68 467 297H512Q401 -25 213 -25Q161 -25 122 9T82 106Q82 130 96 193L348 1290H211L221 1341H356Q419 1341 555 1356Z" />
<glyph unicode="m" glyph-name="m" horiz-adv-x="1556" d="M465 803L412 584L416 580Q570 811 743 811Q820 811 862 770T905 678Q905 668 895 592L899 588Q1050 811 1241 811Q1303 811 1347 773T1391 676Q1391 636 1374 569L1282 195Q1266 122 1266 106Q1266 63
1296 63Q1325 63 1375 115T1466 287H1513Q1469 137 1388 61T1227 -16Q1160 -16 1119 17T1077 117Q1077 142 1094 207L1190 588Q1194 595 1201 632T1208 684Q1208 704 1192 719T1155 735Q1097 735 991 636T829 307L756 0H565L694 543Q719 644 719 674Q719 697 704
717T664 737Q604 737 502 627T348 301L276 0H84L262 735H92L102 786H262Q369 786 465 803Z" />
<glyph unicode="n" glyph-name="n" horiz-adv-x="1110" d="M483 803L432 586L436 582Q605 811 784 811Q850 811 893 772T936 666Q936 639 920 571L829 201Q815 143 815 115Q815 66 848 66Q937 66 1028 285H1075Q1017 128 934 56T764 -16Q627 -16 627 113Q627 157
649 246L733 581Q734 587 741 613T748 668Q748 735 694 735Q635 735 527 634T352 252L293 0H104L276 735H104L115 786H250Q389 786 483 803Z" />
<glyph unicode="o" glyph-name="o" horiz-adv-x="874" d="M76 319Q76 516 216 663T528 811Q666 811 741 712T817 475Q817 282 675 129T367 -25Q235 -25 156 72T76 319ZM633 641Q633 696 604 731T520 766Q439 766 404 700T314 433T260 139Q260 81 292 51T369 20Q494
20 563 292T633 641Z" />
<glyph unicode="p" glyph-name="p" horiz-adv-x="1030" d="M471 688Q558 815 672 815Q793 815 858 729T924 496Q924 291 775 133T479 -25Q373 -25 332 104H328L201 -463H373L362 -514H-156L-145 -463H10L287 735H106L119 786H238Q410 786 494 803L467 692L471
688ZM479 27Q545 27 589 87T688 367T743 659Q743 766 657 766Q596 766 548 718T474 632T404 432T360 211Q360 27 479 27Z" />
<glyph unicode="q" glyph-name="q" horiz-adv-x="874" d="M868 797L573 -463H735L725 -514H201L211 -463H383L520 121L516 125Q425 -25 301 -25Q195 -25 132 71T68 293Q68 477 200 644T485 811Q612 811 645 674H649L676 797H868ZM616 604Q616 665 585 716T494
768Q439 768 394 704T298 403T246 117Q246 82 266 54T326 25Q383 25 455 104T572 352T616 604Z" />
<glyph unicode="r" glyph-name="r" horiz-adv-x="725" d="M453 799L395 551L399 547Q536 811 645 811Q686 811 714 784T743 717Q743 677 716 651T645 625Q605 625 580 649T547 674Q525 674 477 605T403 470T344 264L281 -10H92L256 735H102L115 786H240Q368 786 453 799Z" />
<glyph unicode="s" glyph-name="s" horiz-adv-x="768" d="M311 657Q311 624 336 592T466 505T619 390T668 254Q668 131 565 53T322 -25Q210 -25 137 26T63 145Q63 185 88 212T152 240Q189 240 209 216T229 160Q229 137 217 110T205 76Q205 20 328 20Q422 20 478
61T535 156Q535 241 377 317Q178 414 178 563Q178 654 261 732T479 811Q581 811 641 773T702 670Q702 633 677 609T618 584Q585 584 564 606T543 662Q543 676 550 698T557 735Q557 766 475 766Q399 766 355 735T311 657Z" />
<glyph unicode="t" glyph-name="t" horiz-adv-x="555" d="M461 1008L414 786H543L532 735H401L268 172Q252 109 252 82Q252 43 285 43Q365 43 461 283H502Q454 132 378 54T215 -25Q74 -25 74 119Q74 160 98 264L209 735H78L88 786H223L268 979Q370 980 461 1008Z" />
<glyph unicode="u" glyph-name="u" horiz-adv-x="1110" d="M973 786L842 219Q839 214 830 172T821 102Q821 86 830 72T854 57Q891 57 940 119T1032 285H1077Q1019 127 939 51T776 -25Q712 -25 680 23T647 133Q647 152 655 199L651 203Q496 -25 328 -25Q257 -25
204 22T150 150Q150 178 158 215T174 285L279 741H121L133 786H301Q377 786 424 792T485 799L350 219Q330 144 330 104Q330 43 387 43Q445 43 548 136T702 446L782 786H973Z" />
<glyph unicode="v" glyph-name="v" horiz-adv-x="874" d="M76 514H31Q142 811 319 811Q449 811 449 684Q449 654 420 537L338 201Q322 135 322 106Q322 78 342 59T393 39Q480 39 573 139T715 387T764 594Q764 620 727 627Q625 643 625 721Q625 757 649 784T717
811Q817 811 817 672Q817 438 680 207T344 -25Q259 -25 203 26T147 150Q147 201 170 291L248 608Q252 612 259 655T266 702Q266 733 238 733Q170 733 76 514Z" />
<glyph unicode="w" glyph-name="w" horiz-adv-x="1323" d="M772 795H958Q917 606 877 440T836 178Q836 47 913 47Q1015 47 1117 255T1219 600Q1219 624 1176 627Q1087 630 1087 717Q1087 753 1111 782T1174 811Q1270 811 1270 670Q1270 449 1144 212T877 -25Q795
-25 732 46T668 258Q668 325 686 428L682 432Q582 186 491 81T297 -25Q141 -25 141 121Q141 174 170 289L248 600Q268 685 268 711Q268 743 240 743Q159 743 74 535H29Q127 811 313 811Q446 811 446 674Q446 623 432 580L344 225Q343 219 331 172T319 102Q319 43
362 43Q432 43 547 239T772 795Z" />
<glyph unicode="x" glyph-name="x" horiz-adv-x="1004" d="M162 485H115Q175 635 259 723T418 811Q482 811 521 760T588 539Q723 713 776 762T887 811Q923 811 946 787T969 723Q969 684 944 662T893 639Q858 639 831 661T793 684Q774 684 762 675T695 601T600
477Q652 207 670 135T731 63Q765 63 812 118T905 276H952Q888 116 807 46T655 -25Q559 -25 518 41T449 287L313 115Q205 -25 125 -25Q86 -25 58 3T29 70Q29 103 52 126T111 150Q152 150 176 123Q197 104 209 104Q233 104 243 113T320 199T436 348L392 591Q373 705
330 705Q263 705 162 485Z" />
<glyph unicode="y" glyph-name="y" horiz-adv-x="897" d="M414 -47L246 561Q222 649 211 673T176 698Q120 698 47 487H4Q54 649 124 730T268 811Q317 811 353 776T424 618L539 199H543Q564 265 653 493T777 766T860 811Q938 811 938 735Q938 697 918 674T872 651Q856
651 838 663T811 676Q773 676 721 547L547 115Q462 -93 304 -310T-59 -528Q-121 -528 -151 -500T-182 -436Q-182 -407 -162 -387T-109 -367Q-41 -367 -14 -432Q5 -473 25 -473Q71 -473 180 -386T414 -47Z" />
<glyph unicode="z" glyph-name="z" horiz-adv-x="768" d="M82 502L244 811Q462 713 600 713Q670 713 674 758Q674 811 711 811Q739 811 739 786Q739 734 545 532L342 332Q309 292 256 244L209 201L213 197Q259 209 291 209Q395 209 539 143Q571 131 586 131Q615
131 633 151T651 193Q651 209 623 213Q559 217 559 272Q559 304 581 323T629 342Q700 342 700 240Q700 142 617 59T457 -25Q405 -25 286 26T137 78Q100 78 100 55L106 21Q106 -25 66 -25Q29 -25 29 14Q29 78 293 344T569 610L565 614Q429 594 328 594Q272 594 188
614L133 502H82Z" />
<glyph unicode="{" glyph-name="braceleft" horiz-adv-x="983" d="M803 -473V-508Q627 -481 528 -367T428 -123Q428 -45 450 41T473 197Q473 259 418 323T246 406V444Q362 462 417 526T473 653Q473 723 451 809T428 973Q428 1101 527 1216T803 1358V1321Q687 1296
633 1232T578 1094Q578 1010 602 928Q623 841 623 770Q623 672 552 579T328 430V426Q471 373 547 277T623 80Q623 9 602 -78Q578 -160 578 -244Q578 -319 632 -381T803 -473Z" />
<glyph unicode="|" glyph-name="bar" horiz-adv-x="1079" d="M485 1372H596V-524H485V1372Z" />
<glyph unicode="}" glyph-name="braceright" horiz-adv-x="983" d="M180 1323V1358Q356 1331 455 1217T555 973Q555 895 533 809T510 653Q510 591 565 527T737 444V406Q621 388 566 324T510 197Q510 127 532 41T555 -123Q555 -251 456 -366T180 -508V-471Q296
-446 351 -382T406 -244Q406 -160 381 -78Q360 9 360 80Q360 178 431 271T655 420V424Q512 477 436 572T360 770Q360 841 381 928Q406 1010 406 1094Q406 1169 351 1231T180 1323Z" />
<glyph unicode="~" glyph-name="asciitilde" horiz-adv-x="1366" d="M1171 803H1219Q1214 667 1143 592T971 516Q915 516 858 534T620 626T379 700Q230 700 195 518H147Q157 669 226 737T387 805Q483 805 768 684Q918 618 987 618Q1059 618 1110 664T1171 803Z" />
</font>
</defs>
</svg>
